<mxfile host="app.diagrams.net" modified="2023-05-08T10:41:25.262Z" agent="Mozilla/5.0 (Windows NT 10.0; Win64; x64; rv:109.0) Gecko/20100101 Firefox/112.0" etag="KR_dK2y4loFedD3kqe19" version="21.2.1" type="device">
  <diagram id="R2lEEEUBdFMjLlhIrx00" name="Page-1">
    <mxGraphModel dx="1290" dy="511" grid="1" gridSize="10" guides="1" tooltips="1" connect="1" arrows="1" fold="1" page="1" pageScale="1" pageWidth="850" pageHeight="1100" math="0" shadow="0" extFonts="Permanent Marker^https://fonts.googleapis.com/css?family=Permanent+Marker">
      <root>
        <mxCell id="0" />
        <mxCell id="1" parent="0" />
        <mxCell id="eJg1xTR1Oy6LRIMfobP5-82" style="edgeStyle=orthogonalEdgeStyle;rounded=0;orthogonalLoop=1;jettySize=auto;html=1;exitX=0.75;exitY=0;exitDx=0;exitDy=0;entryX=0.75;entryY=0.2;entryDx=0;entryDy=0;entryPerimeter=0;" edge="1" parent="1">
          <mxGeometry relative="1" as="geometry">
            <mxPoint x="410" y="320" as="sourcePoint" />
            <mxPoint x="410" y="320" as="targetPoint" />
          </mxGeometry>
        </mxCell>
        <mxCell id="eJg1xTR1Oy6LRIMfobP5-8" value="Compound" style="swimlane;fontStyle=0;childLayout=stackLayout;horizontal=1;startSize=26;horizontalStack=0;resizeParent=1;resizeParentMax=0;resizeLast=0;collapsible=1;marginBottom=0;align=center;fontSize=14;" vertex="1" collapsed="1" parent="1">
          <mxGeometry x="370" y="160" width="110" height="30" as="geometry">
            <mxRectangle x="400" y="40" width="160" height="86" as="alternateBounds" />
          </mxGeometry>
        </mxCell>
        <mxCell id="eJg1xTR1Oy6LRIMfobP5-9" value="&lt;div&gt;id&lt;/div&gt;" style="text;strokeColor=none;fillColor=none;spacingLeft=4;spacingRight=4;overflow=hidden;rotatable=0;points=[[0,0.5],[1,0.5]];portConstraint=eastwest;fontSize=12;whiteSpace=wrap;html=1;" vertex="1" parent="eJg1xTR1Oy6LRIMfobP5-8">
          <mxGeometry y="26" width="160" height="30" as="geometry" />
        </mxCell>
        <mxCell id="eJg1xTR1Oy6LRIMfobP5-10" value="public_id" style="text;strokeColor=none;fillColor=none;spacingLeft=4;spacingRight=4;overflow=hidden;rotatable=0;points=[[0,0.5],[1,0.5]];portConstraint=eastwest;fontSize=12;whiteSpace=wrap;html=1;" vertex="1" parent="eJg1xTR1Oy6LRIMfobP5-8">
          <mxGeometry y="56" width="160" height="30" as="geometry" />
        </mxCell>
        <mxCell id="eJg1xTR1Oy6LRIMfobP5-14" value="CompoundAlternateParent" style="swimlane;fontStyle=0;childLayout=stackLayout;horizontal=1;startSize=26;horizontalStack=0;resizeParent=1;resizeParentMax=0;resizeLast=0;collapsible=1;marginBottom=0;align=center;fontSize=14;" vertex="1" collapsed="1" parent="1">
          <mxGeometry x="40" y="120" width="210" height="30" as="geometry">
            <mxRectangle x="40" y="120" width="170" height="86" as="alternateBounds" />
          </mxGeometry>
        </mxCell>
        <mxCell id="eJg1xTR1Oy6LRIMfobP5-15" value="id" style="text;strokeColor=none;fillColor=none;spacingLeft=4;spacingRight=4;overflow=hidden;rotatable=0;points=[[0,0.5],[1,0.5]];portConstraint=eastwest;fontSize=12;whiteSpace=wrap;html=1;" vertex="1" parent="eJg1xTR1Oy6LRIMfobP5-14">
          <mxGeometry y="26" width="170" height="30" as="geometry" />
        </mxCell>
        <mxCell id="eJg1xTR1Oy6LRIMfobP5-16" value="&lt;div style=&quot;background-color: rgb(255, 255, 255); color: rgb(0, 0, 0); font-family: &amp;quot;JetBrains Mono&amp;quot;, monospace;&quot;&gt;compound_id&lt;/div&gt;" style="text;strokeColor=none;fillColor=none;spacingLeft=4;spacingRight=4;overflow=hidden;rotatable=0;points=[[0,0.5],[1,0.5]];portConstraint=eastwest;fontSize=12;whiteSpace=wrap;html=1;" vertex="1" parent="eJg1xTR1Oy6LRIMfobP5-14">
          <mxGeometry y="56" width="170" height="30" as="geometry" />
        </mxCell>
        <mxCell id="eJg1xTR1Oy6LRIMfobP5-18" value="CompoundSubstituent" style="swimlane;fontStyle=0;childLayout=stackLayout;horizontal=1;startSize=26;horizontalStack=0;resizeParent=1;resizeParentMax=0;resizeLast=0;collapsible=1;marginBottom=0;align=center;fontSize=14;" vertex="1" collapsed="1" parent="1">
          <mxGeometry x="40" y="80" width="180" height="30" as="geometry">
            <mxRectangle x="340" y="230" width="160" height="70" as="alternateBounds" />
          </mxGeometry>
        </mxCell>
        <mxCell id="eJg1xTR1Oy6LRIMfobP5-19" value="&lt;div&gt;id&lt;/div&gt;&lt;div&gt;&lt;div style=&quot;background-color: rgb(255, 255, 255); color: rgb(0, 0, 0); font-family: &amp;quot;JetBrains Mono&amp;quot;, monospace;&quot;&gt;compound_id&lt;/div&gt;&lt;/div&gt;" style="text;strokeColor=none;fillColor=none;spacingLeft=4;spacingRight=4;overflow=hidden;rotatable=0;points=[[0,0.5],[1,0.5]];portConstraint=eastwest;fontSize=12;whiteSpace=wrap;html=1;" vertex="1" parent="eJg1xTR1Oy6LRIMfobP5-18">
          <mxGeometry y="26" width="160" height="44" as="geometry" />
        </mxCell>
        <mxCell id="eJg1xTR1Oy6LRIMfobP5-22" value="CompoundExternalDescriptor" style="swimlane;fontStyle=0;childLayout=stackLayout;horizontal=1;startSize=26;horizontalStack=0;resizeParent=1;resizeParentMax=0;resizeLast=0;collapsible=1;marginBottom=0;align=center;fontSize=14;" vertex="1" collapsed="1" parent="1">
          <mxGeometry x="40" y="161" width="220" height="30" as="geometry">
            <mxRectangle x="40" y="240" width="190" height="56" as="alternateBounds" />
          </mxGeometry>
        </mxCell>
        <mxCell id="eJg1xTR1Oy6LRIMfobP5-23" value="id" style="text;strokeColor=none;fillColor=none;spacingLeft=4;spacingRight=4;overflow=hidden;rotatable=0;points=[[0,0.5],[1,0.5]];portConstraint=eastwest;fontSize=12;whiteSpace=wrap;html=1;" vertex="1" parent="eJg1xTR1Oy6LRIMfobP5-22">
          <mxGeometry y="26" width="190" height="30" as="geometry" />
        </mxCell>
        <mxCell id="eJg1xTR1Oy6LRIMfobP5-27" value="CompoundSynonym" style="swimlane;fontStyle=0;childLayout=stackLayout;horizontal=1;startSize=26;horizontalStack=0;resizeParent=1;resizeParentMax=0;resizeLast=0;collapsible=1;marginBottom=0;align=center;fontSize=14;" vertex="1" collapsed="1" parent="1">
          <mxGeometry x="343" y="40" width="170" height="30" as="geometry">
            <mxRectangle x="560" y="200" width="160" height="56" as="alternateBounds" />
          </mxGeometry>
        </mxCell>
        <mxCell id="eJg1xTR1Oy6LRIMfobP5-28" value="id" style="text;strokeColor=none;fillColor=none;spacingLeft=4;spacingRight=4;overflow=hidden;rotatable=0;points=[[0,0.5],[1,0.5]];portConstraint=eastwest;fontSize=12;whiteSpace=wrap;html=1;" vertex="1" parent="eJg1xTR1Oy6LRIMfobP5-27">
          <mxGeometry y="26" width="160" height="30" as="geometry" />
        </mxCell>
        <mxCell id="eJg1xTR1Oy6LRIMfobP5-31" value="Content" style="swimlane;fontStyle=0;childLayout=stackLayout;horizontal=1;startSize=26;horizontalStack=0;resizeParent=1;resizeParentMax=0;resizeLast=0;collapsible=1;marginBottom=0;align=center;fontSize=14;" vertex="1" collapsed="1" parent="1">
          <mxGeometry x="250" y="370" width="90" height="30" as="geometry">
            <mxRectangle x="560" y="280" width="160" height="90" as="alternateBounds" />
          </mxGeometry>
        </mxCell>
        <mxCell id="eJg1xTR1Oy6LRIMfobP5-32" value="&lt;div&gt;id&lt;/div&gt;&lt;div&gt;food_id&lt;/div&gt;&lt;div&gt;orig_food_id&lt;br&gt;&lt;div&gt;source_id&lt;/div&gt;&lt;/div&gt;" style="text;strokeColor=none;fillColor=none;spacingLeft=4;spacingRight=4;overflow=hidden;rotatable=0;points=[[0,0.5],[1,0.5]];portConstraint=eastwest;fontSize=12;whiteSpace=wrap;html=1;" vertex="1" parent="eJg1xTR1Oy6LRIMfobP5-31">
          <mxGeometry y="26" width="160" height="64" as="geometry" />
        </mxCell>
        <mxCell id="eJg1xTR1Oy6LRIMfobP5-37" value="Enzyme" style="swimlane;fontStyle=0;childLayout=stackLayout;horizontal=1;startSize=26;horizontalStack=0;resizeParent=1;resizeParentMax=0;resizeLast=0;collapsible=1;marginBottom=0;align=center;fontSize=14;" vertex="1" collapsed="1" parent="1">
          <mxGeometry x="720" y="161" width="90" height="30" as="geometry">
            <mxRectangle x="560" y="400" width="160" height="56" as="alternateBounds" />
          </mxGeometry>
        </mxCell>
        <mxCell id="eJg1xTR1Oy6LRIMfobP5-38" value="&lt;div style=&quot;background-color: rgb(255, 255, 255); color: rgb(0, 0, 0); font-family: &amp;quot;JetBrains Mono&amp;quot;, monospace;&quot;&gt;id&lt;/div&gt;" style="text;strokeColor=none;fillColor=none;spacingLeft=4;spacingRight=4;overflow=hidden;rotatable=0;points=[[0,0.5],[1,0.5]];portConstraint=eastwest;fontSize=12;whiteSpace=wrap;html=1;" vertex="1" parent="eJg1xTR1Oy6LRIMfobP5-37">
          <mxGeometry y="26" width="160" height="30" as="geometry" />
        </mxCell>
        <mxCell id="eJg1xTR1Oy6LRIMfobP5-41" value="EnzymeSynonym" style="swimlane;fontStyle=0;childLayout=stackLayout;horizontal=1;startSize=26;horizontalStack=0;resizeParent=1;resizeParentMax=0;resizeLast=0;collapsible=1;marginBottom=0;align=center;fontSize=14;" vertex="1" collapsed="1" parent="1">
          <mxGeometry x="850" y="189" width="150" height="30" as="geometry">
            <mxRectangle x="560" y="480" width="160" height="70" as="alternateBounds" />
          </mxGeometry>
        </mxCell>
        <mxCell id="eJg1xTR1Oy6LRIMfobP5-42" value="&lt;div style=&quot;background-color: rgb(255, 255, 255); color: rgb(0, 0, 0); font-family: &amp;quot;JetBrains Mono&amp;quot;, monospace;&quot;&gt;id&lt;/div&gt;&lt;div style=&quot;background-color: rgb(255, 255, 255); color: rgb(0, 0, 0); font-family: &amp;quot;JetBrains Mono&amp;quot;, monospace;&quot;&gt;&lt;div style=&quot;background-color: rgb(255, 255, 255); color: rgb(0, 0, 0); font-family: &amp;quot;JetBrains Mono&amp;quot;, monospace;&quot;&gt;enzyme_id&lt;/div&gt;&lt;/div&gt;" style="text;strokeColor=none;fillColor=none;spacingLeft=4;spacingRight=4;overflow=hidden;rotatable=0;points=[[0,0.5],[1,0.5]];portConstraint=eastwest;fontSize=12;whiteSpace=wrap;html=1;" vertex="1" parent="eJg1xTR1Oy6LRIMfobP5-41">
          <mxGeometry y="26" width="160" height="44" as="geometry" />
        </mxCell>
        <mxCell id="eJg1xTR1Oy6LRIMfobP5-45" value="Flavor" style="swimlane;fontStyle=0;childLayout=stackLayout;horizontal=1;startSize=26;horizontalStack=0;resizeParent=1;resizeParentMax=0;resizeLast=0;collapsible=1;marginBottom=0;align=center;fontSize=14;" vertex="1" collapsed="1" parent="1">
          <mxGeometry x="720" y="234" width="80" height="30" as="geometry">
            <mxRectangle x="375" y="530" width="160" height="56" as="alternateBounds" />
          </mxGeometry>
        </mxCell>
        <mxCell id="eJg1xTR1Oy6LRIMfobP5-46" value="id" style="text;strokeColor=none;fillColor=none;spacingLeft=4;spacingRight=4;overflow=hidden;rotatable=0;points=[[0,0.5],[1,0.5]];portConstraint=eastwest;fontSize=12;whiteSpace=wrap;html=1;" vertex="1" parent="eJg1xTR1Oy6LRIMfobP5-45">
          <mxGeometry y="26" width="160" height="30" as="geometry" />
        </mxCell>
        <mxCell id="eJg1xTR1Oy6LRIMfobP5-49" value="Food" style="swimlane;fontStyle=0;childLayout=stackLayout;horizontal=1;startSize=26;horizontalStack=0;resizeParent=1;resizeParentMax=0;resizeLast=0;collapsible=1;marginBottom=0;align=center;fontSize=14;" vertex="1" collapsed="1" parent="1">
          <mxGeometry x="260" y="440" width="70" height="30" as="geometry">
            <mxRectangle x="80" y="340" width="160" height="56" as="alternateBounds" />
          </mxGeometry>
        </mxCell>
        <mxCell id="eJg1xTR1Oy6LRIMfobP5-50" value="&lt;div&gt;id&lt;/div&gt;&lt;div&gt;&lt;br&gt;&lt;/div&gt;" style="text;strokeColor=none;fillColor=none;spacingLeft=4;spacingRight=4;overflow=hidden;rotatable=0;points=[[0,0.5],[1,0.5]];portConstraint=eastwest;fontSize=12;whiteSpace=wrap;html=1;" vertex="1" parent="eJg1xTR1Oy6LRIMfobP5-49">
          <mxGeometry y="26" width="160" height="30" as="geometry" />
        </mxCell>
        <mxCell id="eJg1xTR1Oy6LRIMfobP5-57" value="HealthEffect" style="swimlane;fontStyle=0;childLayout=stackLayout;horizontal=1;startSize=26;horizontalStack=0;resizeParent=1;resizeParentMax=0;resizeLast=0;collapsible=1;marginBottom=0;align=center;fontSize=14;" vertex="1" collapsed="1" parent="1">
          <mxGeometry x="365.5" y="450" width="120" height="30" as="geometry">
            <mxRectangle x="80" y="480" width="160" height="56" as="alternateBounds" />
          </mxGeometry>
        </mxCell>
        <mxCell id="eJg1xTR1Oy6LRIMfobP5-58" value="&lt;div style=&quot;background-color: rgb(255, 255, 255); color: rgb(0, 0, 0); font-family: &amp;quot;JetBrains Mono&amp;quot;, monospace;&quot;&gt;id&lt;/div&gt;" style="text;strokeColor=none;fillColor=none;spacingLeft=4;spacingRight=4;overflow=hidden;rotatable=0;points=[[0,0.5],[1,0.5]];portConstraint=eastwest;fontSize=12;whiteSpace=wrap;html=1;" vertex="1" parent="eJg1xTR1Oy6LRIMfobP5-57">
          <mxGeometry y="26" width="160" height="30" as="geometry" />
        </mxCell>
        <mxCell id="eJg1xTR1Oy6LRIMfobP5-61" value="MapItemsPathway" style="swimlane;fontStyle=0;childLayout=stackLayout;horizontal=1;startSize=26;horizontalStack=0;resizeParent=1;resizeParentMax=0;resizeLast=0;collapsible=1;marginBottom=0;align=center;fontSize=14;" vertex="1" collapsed="1" parent="1">
          <mxGeometry x="760" y="305" width="160" height="30" as="geometry">
            <mxRectangle x="770" y="290" width="160" height="70" as="alternateBounds" />
          </mxGeometry>
        </mxCell>
        <mxCell id="eJg1xTR1Oy6LRIMfobP5-62" value="&lt;div style=&quot;background-color: rgb(255, 255, 255); color: rgb(0, 0, 0); font-family: &amp;quot;JetBrains Mono&amp;quot;, monospace;&quot;&gt;id&lt;/div&gt;&lt;div style=&quot;background-color: rgb(255, 255, 255); color: rgb(0, 0, 0); font-family: &amp;quot;JetBrains Mono&amp;quot;, monospace;&quot;&gt;&lt;div style=&quot;background-color: rgb(255, 255, 255); color: rgb(0, 0, 0); font-family: &amp;quot;JetBrains Mono&amp;quot;, monospace;&quot;&gt;map_item_id&lt;/div&gt;&lt;/div&gt;" style="text;strokeColor=none;fillColor=none;spacingLeft=4;spacingRight=4;overflow=hidden;rotatable=0;points=[[0,0.5],[1,0.5]];portConstraint=eastwest;fontSize=12;whiteSpace=wrap;html=1;" vertex="1" parent="eJg1xTR1Oy6LRIMfobP5-61">
          <mxGeometry y="26" width="160" height="44" as="geometry" />
        </mxCell>
        <mxCell id="eJg1xTR1Oy6LRIMfobP5-65" value="NcbiTaxonomyMap" style="swimlane;fontStyle=0;childLayout=stackLayout;horizontal=1;startSize=26;horizontalStack=0;resizeParent=1;resizeParentMax=0;resizeLast=0;collapsible=1;marginBottom=0;align=center;fontSize=14;" vertex="1" collapsed="1" parent="1">
          <mxGeometry x="365.5" y="505" width="160" height="30" as="geometry">
            <mxRectangle x="320" y="190" width="160" height="56" as="alternateBounds" />
          </mxGeometry>
        </mxCell>
        <mxCell id="eJg1xTR1Oy6LRIMfobP5-66" value="id" style="text;strokeColor=none;fillColor=none;spacingLeft=4;spacingRight=4;overflow=hidden;rotatable=0;points=[[0,0.5],[1,0.5]];portConstraint=eastwest;fontSize=12;whiteSpace=wrap;html=1;" vertex="1" parent="eJg1xTR1Oy6LRIMfobP5-65">
          <mxGeometry y="26" width="160" height="30" as="geometry" />
        </mxCell>
        <mxCell id="eJg1xTR1Oy6LRIMfobP5-69" value="Nutrient" style="swimlane;fontStyle=0;childLayout=stackLayout;horizontal=1;startSize=26;horizontalStack=0;resizeParent=1;resizeParentMax=0;resizeLast=0;collapsible=1;marginBottom=0;align=center;fontSize=14;" vertex="1" collapsed="1" parent="1">
          <mxGeometry x="160" y="440" width="90" height="30" as="geometry">
            <mxRectangle x="740" y="464" width="160" height="56" as="alternateBounds" />
          </mxGeometry>
        </mxCell>
        <mxCell id="eJg1xTR1Oy6LRIMfobP5-70" value="id" style="text;strokeColor=none;fillColor=none;spacingLeft=4;spacingRight=4;overflow=hidden;rotatable=0;points=[[0,0.5],[1,0.5]];portConstraint=eastwest;fontSize=12;whiteSpace=wrap;html=1;" vertex="1" parent="eJg1xTR1Oy6LRIMfobP5-69">
          <mxGeometry y="26" width="160" height="30" as="geometry" />
        </mxCell>
        <mxCell id="eJg1xTR1Oy6LRIMfobP5-83" value="OntologySynonym" style="swimlane;fontStyle=0;childLayout=stackLayout;horizontal=1;startSize=26;horizontalStack=0;resizeParent=1;resizeParentMax=0;resizeLast=0;collapsible=1;marginBottom=0;align=center;fontSize=14;" vertex="1" collapsed="1" parent="1">
          <mxGeometry x="920" y="80" width="150" height="30" as="geometry">
            <mxRectangle x="760" y="160" width="160" height="70" as="alternateBounds" />
          </mxGeometry>
        </mxCell>
        <mxCell id="eJg1xTR1Oy6LRIMfobP5-84" value="&lt;div style=&quot;background-color: rgb(255, 255, 255); color: rgb(0, 0, 0); font-family: &amp;quot;JetBrains Mono&amp;quot;, monospace;&quot;&gt;id&lt;/div&gt;&lt;div style=&quot;background-color: rgb(255, 255, 255); color: rgb(0, 0, 0); font-family: &amp;quot;JetBrains Mono&amp;quot;, monospace;&quot;&gt;&lt;div style=&quot;background-color: rgb(255, 255, 255); color: rgb(0, 0, 0); font-family: &amp;quot;JetBrains Mono&amp;quot;, monospace;&quot;&gt;ontology_term_id&lt;/div&gt;&lt;/div&gt;" style="text;strokeColor=none;fillColor=none;spacingLeft=4;spacingRight=4;overflow=hidden;rotatable=0;points=[[0,0.5],[1,0.5]];portConstraint=eastwest;fontSize=12;whiteSpace=wrap;html=1;" vertex="1" parent="eJg1xTR1Oy6LRIMfobP5-83">
          <mxGeometry y="26" width="160" height="44" as="geometry" />
        </mxCell>
        <mxCell id="eJg1xTR1Oy6LRIMfobP5-88" value="OntologyTerm" style="swimlane;fontStyle=0;childLayout=stackLayout;horizontal=1;startSize=26;horizontalStack=0;resizeParent=1;resizeParentMax=0;resizeLast=0;collapsible=1;marginBottom=0;align=center;fontSize=14;" vertex="1" collapsed="1" parent="1">
          <mxGeometry x="720" y="80" width="130" height="30" as="geometry">
            <mxRectangle x="740" y="384" width="160" height="56" as="alternateBounds" />
          </mxGeometry>
        </mxCell>
        <mxCell id="eJg1xTR1Oy6LRIMfobP5-89" value="&lt;div style=&quot;background-color: rgb(255, 255, 255); color: rgb(0, 0, 0); font-family: &amp;quot;JetBrains Mono&amp;quot;, monospace;&quot;&gt;id&lt;/div&gt;" style="text;strokeColor=none;fillColor=none;spacingLeft=4;spacingRight=4;overflow=hidden;rotatable=0;points=[[0,0.5],[1,0.5]];portConstraint=eastwest;fontSize=12;whiteSpace=wrap;html=1;" vertex="1" parent="eJg1xTR1Oy6LRIMfobP5-88">
          <mxGeometry y="26" width="160" height="30" as="geometry" />
        </mxCell>
        <mxCell id="eJg1xTR1Oy6LRIMfobP5-98" value="Sequence(empty)" style="swimlane;fontStyle=0;childLayout=stackLayout;horizontal=1;startSize=26;horizontalStack=0;resizeParent=1;resizeParentMax=0;resizeLast=0;collapsible=1;marginBottom=0;align=center;fontSize=14;" vertex="1" collapsed="1" parent="1">
          <mxGeometry x="640" y="400" width="100" height="30" as="geometry">
            <mxRectangle x="55" y="680" width="160" height="56" as="alternateBounds" />
          </mxGeometry>
        </mxCell>
        <mxCell id="eJg1xTR1Oy6LRIMfobP5-99" value="&lt;div style=&quot;background-color: rgb(255, 255, 255); color: rgb(0, 0, 0); font-family: &amp;quot;JetBrains Mono&amp;quot;, monospace;&quot;&gt;id&lt;/div&gt;" style="text;strokeColor=none;fillColor=none;spacingLeft=4;spacingRight=4;overflow=hidden;rotatable=0;points=[[0,0.5],[1,0.5]];portConstraint=eastwest;fontSize=12;whiteSpace=wrap;html=1;" vertex="1" parent="eJg1xTR1Oy6LRIMfobP5-98">
          <mxGeometry y="26" width="160" height="30" as="geometry" />
        </mxCell>
        <mxCell id="eJg1xTR1Oy6LRIMfobP5-102" value="Reference" style="swimlane;fontStyle=0;childLayout=stackLayout;horizontal=1;startSize=26;horizontalStack=0;resizeParent=1;resizeParentMax=0;resizeLast=0;collapsible=1;marginBottom=0;align=center;fontSize=14;" vertex="1" collapsed="1" parent="1">
          <mxGeometry x="640" y="440" width="110" height="30" as="geometry">
            <mxRectangle x="730" y="670" width="160" height="56" as="alternateBounds" />
          </mxGeometry>
        </mxCell>
        <mxCell id="eJg1xTR1Oy6LRIMfobP5-103" value="&lt;div style=&quot;background-color: rgb(255, 255, 255); color: rgb(0, 0, 0); font-family: &amp;quot;JetBrains Mono&amp;quot;, monospace;&quot;&gt;id&lt;/div&gt;" style="text;strokeColor=none;fillColor=none;spacingLeft=4;spacingRight=4;overflow=hidden;rotatable=0;points=[[0,0.5],[1,0.5]];portConstraint=eastwest;fontSize=12;whiteSpace=wrap;html=1;" vertex="1" parent="eJg1xTR1Oy6LRIMfobP5-102">
          <mxGeometry y="26" width="160" height="30" as="geometry" />
        </mxCell>
        <mxCell id="eJg1xTR1Oy6LRIMfobP5-106" value="PfamMembership" style="swimlane;fontStyle=0;childLayout=stackLayout;horizontal=1;startSize=26;horizontalStack=0;resizeParent=1;resizeParentMax=0;resizeLast=0;collapsible=1;marginBottom=0;align=center;fontSize=14;" vertex="1" collapsed="1" parent="1">
          <mxGeometry x="850" y="146" width="150" height="30" as="geometry">
            <mxRectangle x="510" y="636" width="160" height="56" as="alternateBounds" />
          </mxGeometry>
        </mxCell>
        <mxCell id="eJg1xTR1Oy6LRIMfobP5-107" value="&lt;div style=&quot;background-color: rgb(255, 255, 255); color: rgb(0, 0, 0); font-family: &amp;quot;JetBrains Mono&amp;quot;, monospace;&quot;&gt;id&lt;/div&gt;" style="text;strokeColor=none;fillColor=none;spacingLeft=4;spacingRight=4;overflow=hidden;rotatable=0;points=[[0,0.5],[1,0.5]];portConstraint=eastwest;fontSize=12;whiteSpace=wrap;html=1;" vertex="1" parent="eJg1xTR1Oy6LRIMfobP5-106">
          <mxGeometry y="26" width="160" height="30" as="geometry" />
        </mxCell>
        <mxCell id="eJg1xTR1Oy6LRIMfobP5-110" value="Pfam" style="swimlane;fontStyle=0;childLayout=stackLayout;horizontal=1;startSize=26;horizontalStack=0;resizeParent=1;resizeParentMax=0;resizeLast=0;collapsible=1;marginBottom=0;align=center;fontSize=14;" vertex="1" collapsed="1" parent="1">
          <mxGeometry x="640" y="480" width="70" height="30" as="geometry">
            <mxRectangle x="260" y="670" width="160" height="56" as="alternateBounds" />
          </mxGeometry>
        </mxCell>
        <mxCell id="eJg1xTR1Oy6LRIMfobP5-111" value="&lt;div style=&quot;background-color: rgb(255, 255, 255); color: rgb(0, 0, 0); font-family: &amp;quot;JetBrains Mono&amp;quot;, monospace;&quot;&gt;id&lt;/div&gt;" style="text;strokeColor=none;fillColor=none;spacingLeft=4;spacingRight=4;overflow=hidden;rotatable=0;points=[[0,0.5],[1,0.5]];portConstraint=eastwest;fontSize=12;whiteSpace=wrap;html=1;" vertex="1" parent="eJg1xTR1Oy6LRIMfobP5-110">
          <mxGeometry y="26" width="160" height="30" as="geometry" />
        </mxCell>
        <mxCell id="eJg1xTR1Oy6LRIMfobP5-114" value="PdbIdentifier" style="swimlane;fontStyle=0;childLayout=stackLayout;horizontal=1;startSize=26;horizontalStack=0;resizeParent=1;resizeParentMax=0;resizeLast=0;collapsible=1;marginBottom=0;align=center;fontSize=14;" vertex="1" collapsed="1" parent="1">
          <mxGeometry x="40" y="200" width="120" height="30" as="geometry">
            <mxRectangle x="110" y="580" width="160" height="56" as="alternateBounds" />
          </mxGeometry>
        </mxCell>
        <mxCell id="eJg1xTR1Oy6LRIMfobP5-115" value="&lt;div style=&quot;background-color: rgb(255, 255, 255); color: rgb(0, 0, 0); font-family: &amp;quot;JetBrains Mono&amp;quot;, monospace;&quot;&gt;id&lt;/div&gt;" style="text;strokeColor=none;fillColor=none;spacingLeft=4;spacingRight=4;overflow=hidden;rotatable=0;points=[[0,0.5],[1,0.5]];portConstraint=eastwest;fontSize=12;whiteSpace=wrap;html=1;" vertex="1" parent="eJg1xTR1Oy6LRIMfobP5-114">
          <mxGeometry y="26" width="160" height="30" as="geometry" />
        </mxCell>
        <mxCell id="eJg1xTR1Oy6LRIMfobP5-118" value="Pathway" style="swimlane;fontStyle=0;childLayout=stackLayout;horizontal=1;startSize=26;horizontalStack=0;resizeParent=1;resizeParentMax=0;resizeLast=0;collapsible=1;marginBottom=0;align=center;fontSize=14;" vertex="1" collapsed="1" parent="1">
          <mxGeometry x="629" y="305" width="90" height="30" as="geometry">
            <mxRectangle x="80" y="408" width="160" height="56" as="alternateBounds" />
          </mxGeometry>
        </mxCell>
        <mxCell id="eJg1xTR1Oy6LRIMfobP5-119" value="&lt;div style=&quot;background-color: rgb(255, 255, 255); color: rgb(0, 0, 0); font-family: &amp;quot;JetBrains Mono&amp;quot;, monospace;&quot;&gt;id&lt;/div&gt;" style="text;strokeColor=none;fillColor=none;spacingLeft=4;spacingRight=4;overflow=hidden;rotatable=0;points=[[0,0.5],[1,0.5]];portConstraint=eastwest;fontSize=12;whiteSpace=wrap;html=1;" vertex="1" parent="eJg1xTR1Oy6LRIMfobP5-118">
          <mxGeometry y="26" width="160" height="30" as="geometry" />
        </mxCell>
        <mxCell id="eJg1xTR1Oy6LRIMfobP5-122" value="AccessionNumber" style="swimlane;fontStyle=0;childLayout=stackLayout;horizontal=1;startSize=26;horizontalStack=0;resizeParent=1;resizeParentMax=0;resizeLast=0;collapsible=1;marginBottom=0;align=center;fontSize=14;" vertex="1" collapsed="1" parent="1">
          <mxGeometry x="40" y="40" width="150" height="30" as="geometry">
            <mxRectangle x="155" y="40" width="160" height="56" as="alternateBounds" />
          </mxGeometry>
        </mxCell>
        <mxCell id="eJg1xTR1Oy6LRIMfobP5-123" value="id" style="text;strokeColor=none;fillColor=none;spacingLeft=4;spacingRight=4;overflow=hidden;rotatable=0;points=[[0,0.5],[1,0.5]];portConstraint=eastwest;fontSize=12;whiteSpace=wrap;html=1;" vertex="1" parent="eJg1xTR1Oy6LRIMfobP5-122">
          <mxGeometry y="26" width="160" height="30" as="geometry" />
        </mxCell>
        <mxCell id="eJg1xTR1Oy6LRIMfobP5-127" value="" style="endArrow=none;html=1;rounded=0;dashed=1;dashPattern=1 2;entryX=0;entryY=0.5;entryDx=0;entryDy=0;exitX=1;exitY=0.5;exitDx=0;exitDy=0;" edge="1" parent="1" source="eJg1xTR1Oy6LRIMfobP5-88" target="eJg1xTR1Oy6LRIMfobP5-83">
          <mxGeometry relative="1" as="geometry">
            <mxPoint x="500" y="230" as="sourcePoint" />
            <mxPoint x="660" y="230" as="targetPoint" />
          </mxGeometry>
        </mxCell>
        <mxCell id="eJg1xTR1Oy6LRIMfobP5-128" value="N" style="resizable=0;html=1;whiteSpace=wrap;align=right;verticalAlign=bottom;" connectable="0" vertex="1" parent="eJg1xTR1Oy6LRIMfobP5-127">
          <mxGeometry x="1" relative="1" as="geometry">
            <mxPoint x="-10" as="offset" />
          </mxGeometry>
        </mxCell>
        <mxCell id="eJg1xTR1Oy6LRIMfobP5-129" value="&lt;div style=&quot;background-color: rgb(255, 255, 255); color: rgb(0, 0, 0); font-family: &amp;quot;JetBrains Mono&amp;quot;, monospace;&quot;&gt;CompoundOntologyTerm&lt;/div&gt;" style="shape=rhombus;perimeter=rhombusPerimeter;whiteSpace=wrap;html=1;align=center;" vertex="1" parent="1">
          <mxGeometry x="522.5" y="55" width="155" height="80" as="geometry" />
        </mxCell>
        <mxCell id="eJg1xTR1Oy6LRIMfobP5-134" value="&lt;div style=&quot;background-color: rgb(255, 255, 255); color: rgb(0, 0, 0); font-family: &amp;quot;JetBrains Mono&amp;quot;, monospace;&quot;&gt;CompoundsEnzyme&lt;/div&gt;" style="shape=rhombus;perimeter=rhombusPerimeter;whiteSpace=wrap;html=1;align=center;" vertex="1" parent="1">
          <mxGeometry x="540" y="146" width="120" height="60" as="geometry" />
        </mxCell>
        <mxCell id="eJg1xTR1Oy6LRIMfobP5-139" value="" style="endArrow=none;html=1;rounded=0;dashed=1;dashPattern=1 2;entryX=0;entryY=0.5;entryDx=0;entryDy=0;exitX=1;exitY=0;exitDx=0;exitDy=0;" edge="1" parent="1" source="eJg1xTR1Oy6LRIMfobP5-8" target="eJg1xTR1Oy6LRIMfobP5-129">
          <mxGeometry relative="1" as="geometry">
            <mxPoint x="540" y="160" as="sourcePoint" />
            <mxPoint x="700" y="160" as="targetPoint" />
          </mxGeometry>
        </mxCell>
        <mxCell id="eJg1xTR1Oy6LRIMfobP5-141" value="" style="endArrow=none;html=1;rounded=0;dashed=1;dashPattern=1 2;exitX=0.5;exitY=0;exitDx=0;exitDy=0;" edge="1" parent="1" source="eJg1xTR1Oy6LRIMfobP5-8" target="eJg1xTR1Oy6LRIMfobP5-27">
          <mxGeometry relative="1" as="geometry">
            <mxPoint x="540" y="160" as="sourcePoint" />
            <mxPoint x="700" y="160" as="targetPoint" />
          </mxGeometry>
        </mxCell>
        <mxCell id="eJg1xTR1Oy6LRIMfobP5-142" value="N" style="resizable=0;html=1;whiteSpace=wrap;align=right;verticalAlign=bottom;" connectable="0" vertex="1" parent="eJg1xTR1Oy6LRIMfobP5-141">
          <mxGeometry x="1" relative="1" as="geometry">
            <mxPoint y="20" as="offset" />
          </mxGeometry>
        </mxCell>
        <mxCell id="eJg1xTR1Oy6LRIMfobP5-143" value="&lt;div style=&quot;background-color: rgb(255, 255, 255); color: rgb(0, 0, 0); font-family: &amp;quot;JetBrains Mono&amp;quot;, monospace;&quot;&gt;CompoundsFlavor&lt;/div&gt;" style="shape=rhombus;perimeter=rhombusPerimeter;whiteSpace=wrap;html=1;align=center;" vertex="1" parent="1">
          <mxGeometry x="540" y="219" width="120" height="60" as="geometry" />
        </mxCell>
        <mxCell id="eJg1xTR1Oy6LRIMfobP5-146" value="" style="endArrow=none;html=1;rounded=0;entryX=0;entryY=0.5;entryDx=0;entryDy=0;" edge="1" parent="1" source="eJg1xTR1Oy6LRIMfobP5-129" target="eJg1xTR1Oy6LRIMfobP5-88">
          <mxGeometry relative="1" as="geometry">
            <mxPoint x="540" y="134" as="sourcePoint" />
            <mxPoint x="700" y="134" as="targetPoint" />
          </mxGeometry>
        </mxCell>
        <mxCell id="eJg1xTR1Oy6LRIMfobP5-147" value="N" style="resizable=0;html=1;whiteSpace=wrap;align=right;verticalAlign=bottom;" connectable="0" vertex="1" parent="eJg1xTR1Oy6LRIMfobP5-146">
          <mxGeometry x="1" relative="1" as="geometry">
            <mxPoint x="-10" as="offset" />
          </mxGeometry>
        </mxCell>
        <mxCell id="eJg1xTR1Oy6LRIMfobP5-148" value="" style="endArrow=none;html=1;rounded=0;entryX=0;entryY=0.5;entryDx=0;entryDy=0;exitX=1;exitY=0.5;exitDx=0;exitDy=0;" edge="1" parent="1" source="eJg1xTR1Oy6LRIMfobP5-134" target="eJg1xTR1Oy6LRIMfobP5-37">
          <mxGeometry relative="1" as="geometry">
            <mxPoint x="560" y="260" as="sourcePoint" />
            <mxPoint x="720" y="260" as="targetPoint" />
          </mxGeometry>
        </mxCell>
        <mxCell id="eJg1xTR1Oy6LRIMfobP5-149" value="N" style="resizable=0;html=1;whiteSpace=wrap;align=right;verticalAlign=bottom;" connectable="0" vertex="1" parent="eJg1xTR1Oy6LRIMfobP5-148">
          <mxGeometry x="1" relative="1" as="geometry">
            <mxPoint x="-10" as="offset" />
          </mxGeometry>
        </mxCell>
        <mxCell id="eJg1xTR1Oy6LRIMfobP5-150" value="" style="endArrow=none;html=1;rounded=0;dashed=1;dashPattern=1 2;entryX=0;entryY=0.5;entryDx=0;entryDy=0;exitX=1;exitY=0.5;exitDx=0;exitDy=0;" edge="1" parent="1" source="eJg1xTR1Oy6LRIMfobP5-8" target="eJg1xTR1Oy6LRIMfobP5-134">
          <mxGeometry relative="1" as="geometry">
            <mxPoint x="560" y="260" as="sourcePoint" />
            <mxPoint x="720" y="260" as="targetPoint" />
          </mxGeometry>
        </mxCell>
        <mxCell id="eJg1xTR1Oy6LRIMfobP5-154" value="" style="endArrow=none;html=1;rounded=0;dashed=1;dashPattern=1 2;exitX=1;exitY=1;exitDx=0;exitDy=0;entryX=0;entryY=0.5;entryDx=0;entryDy=0;" edge="1" parent="1" source="eJg1xTR1Oy6LRIMfobP5-8" target="eJg1xTR1Oy6LRIMfobP5-143">
          <mxGeometry relative="1" as="geometry">
            <mxPoint x="390" y="339" as="sourcePoint" />
            <mxPoint x="550" y="339" as="targetPoint" />
          </mxGeometry>
        </mxCell>
        <mxCell id="eJg1xTR1Oy6LRIMfobP5-158" value="&lt;div style=&quot;background-color: rgb(255, 255, 255); color: rgb(0, 0, 0); font-family: &amp;quot;JetBrains Mono&amp;quot;, monospace;&quot;&gt;CompoundsHealthEffect&lt;/div&gt;" style="shape=rhombus;perimeter=rhombusPerimeter;whiteSpace=wrap;html=1;align=center;" vertex="1" parent="1">
          <mxGeometry x="343" y="320" width="165" height="70" as="geometry" />
        </mxCell>
        <mxCell id="eJg1xTR1Oy6LRIMfobP5-159" value="&lt;div style=&quot;background-color: rgb(255, 255, 255); color: rgb(0, 0, 0); font-family: &amp;quot;JetBrains Mono&amp;quot;, monospace;&quot;&gt;CompoundsPathway&lt;/div&gt;" style="shape=rhombus;perimeter=rhombusPerimeter;whiteSpace=wrap;html=1;align=center;" vertex="1" parent="1">
          <mxGeometry x="450" y="290" width="140" height="60" as="geometry" />
        </mxCell>
        <mxCell id="eJg1xTR1Oy6LRIMfobP5-161" value="" style="endArrow=none;html=1;rounded=0;dashed=1;dashPattern=1 2;entryX=0.5;entryY=0;entryDx=0;entryDy=0;" edge="1" parent="1" source="eJg1xTR1Oy6LRIMfobP5-8" target="eJg1xTR1Oy6LRIMfobP5-159">
          <mxGeometry relative="1" as="geometry">
            <mxPoint x="560" y="290" as="sourcePoint" />
            <mxPoint x="720" y="290" as="targetPoint" />
          </mxGeometry>
        </mxCell>
        <mxCell id="eJg1xTR1Oy6LRIMfobP5-163" value="" style="endArrow=none;html=1;rounded=0;dashed=1;dashPattern=1 2;entryX=0;entryY=0.5;entryDx=0;entryDy=0;exitX=1;exitY=0.5;exitDx=0;exitDy=0;" edge="1" parent="1" source="eJg1xTR1Oy6LRIMfobP5-118" target="eJg1xTR1Oy6LRIMfobP5-61">
          <mxGeometry relative="1" as="geometry">
            <mxPoint x="560" y="290" as="sourcePoint" />
            <mxPoint x="720" y="290" as="targetPoint" />
          </mxGeometry>
        </mxCell>
        <mxCell id="eJg1xTR1Oy6LRIMfobP5-164" value="N" style="resizable=0;html=1;whiteSpace=wrap;align=right;verticalAlign=bottom;" connectable="0" vertex="1" parent="eJg1xTR1Oy6LRIMfobP5-163">
          <mxGeometry x="1" relative="1" as="geometry">
            <mxPoint x="-10" as="offset" />
          </mxGeometry>
        </mxCell>
        <mxCell id="eJg1xTR1Oy6LRIMfobP5-167" value="" style="endArrow=none;html=1;rounded=0;exitX=1;exitY=0.5;exitDx=0;exitDy=0;entryX=0;entryY=0.5;entryDx=0;entryDy=0;" edge="1" parent="1" source="eJg1xTR1Oy6LRIMfobP5-159" target="eJg1xTR1Oy6LRIMfobP5-118">
          <mxGeometry relative="1" as="geometry">
            <mxPoint x="560" y="290" as="sourcePoint" />
            <mxPoint x="720" y="290" as="targetPoint" />
          </mxGeometry>
        </mxCell>
        <mxCell id="eJg1xTR1Oy6LRIMfobP5-168" value="N" style="resizable=0;html=1;whiteSpace=wrap;align=right;verticalAlign=bottom;" connectable="0" vertex="1" parent="eJg1xTR1Oy6LRIMfobP5-167">
          <mxGeometry x="1" relative="1" as="geometry">
            <mxPoint x="-15" as="offset" />
          </mxGeometry>
        </mxCell>
        <mxCell id="eJg1xTR1Oy6LRIMfobP5-169" value="" style="endArrow=none;html=1;rounded=0;entryX=0;entryY=0.5;entryDx=0;entryDy=0;exitX=1;exitY=0.5;exitDx=0;exitDy=0;" edge="1" parent="1" source="eJg1xTR1Oy6LRIMfobP5-143" target="eJg1xTR1Oy6LRIMfobP5-45">
          <mxGeometry relative="1" as="geometry">
            <mxPoint x="560" y="290" as="sourcePoint" />
            <mxPoint x="720" y="290" as="targetPoint" />
          </mxGeometry>
        </mxCell>
        <mxCell id="eJg1xTR1Oy6LRIMfobP5-170" value="N" style="resizable=0;html=1;whiteSpace=wrap;align=right;verticalAlign=bottom;" connectable="0" vertex="1" parent="eJg1xTR1Oy6LRIMfobP5-169">
          <mxGeometry x="1" relative="1" as="geometry">
            <mxPoint x="-10" as="offset" />
          </mxGeometry>
        </mxCell>
        <mxCell id="eJg1xTR1Oy6LRIMfobP5-171" value="" style="endArrow=none;html=1;rounded=0;dashed=1;dashPattern=1 2;exitX=0.5;exitY=1;exitDx=0;exitDy=0;entryX=0.5;entryY=0;entryDx=0;entryDy=0;" edge="1" parent="1" source="eJg1xTR1Oy6LRIMfobP5-8" target="eJg1xTR1Oy6LRIMfobP5-158">
          <mxGeometry relative="1" as="geometry">
            <mxPoint x="260" y="290" as="sourcePoint" />
            <mxPoint x="420" y="290" as="targetPoint" />
          </mxGeometry>
        </mxCell>
        <mxCell id="eJg1xTR1Oy6LRIMfobP5-173" value="" style="endArrow=none;html=1;rounded=0;exitX=0.5;exitY=1;exitDx=0;exitDy=0;entryX=0.5;entryY=0;entryDx=0;entryDy=0;" edge="1" parent="1" source="eJg1xTR1Oy6LRIMfobP5-158" target="eJg1xTR1Oy6LRIMfobP5-57">
          <mxGeometry relative="1" as="geometry">
            <mxPoint x="295" y="470" as="sourcePoint" />
            <mxPoint x="455" y="470" as="targetPoint" />
          </mxGeometry>
        </mxCell>
        <mxCell id="eJg1xTR1Oy6LRIMfobP5-174" value="N" style="resizable=0;html=1;whiteSpace=wrap;align=right;verticalAlign=bottom;" connectable="0" vertex="1" parent="eJg1xTR1Oy6LRIMfobP5-173">
          <mxGeometry x="1" relative="1" as="geometry" />
        </mxCell>
        <mxCell id="eJg1xTR1Oy6LRIMfobP5-175" value="" style="endArrow=none;html=1;rounded=0;dashed=1;dashPattern=1 2;entryX=0.5;entryY=0;entryDx=0;entryDy=0;exitX=0;exitY=1;exitDx=0;exitDy=0;" edge="1" parent="1" source="eJg1xTR1Oy6LRIMfobP5-31" target="eJg1xTR1Oy6LRIMfobP5-69">
          <mxGeometry relative="1" as="geometry">
            <mxPoint x="390" y="120" as="sourcePoint" />
            <mxPoint x="442" y="94.5" as="targetPoint" />
          </mxGeometry>
        </mxCell>
        <mxCell id="eJg1xTR1Oy6LRIMfobP5-176" value="N" style="resizable=0;html=1;whiteSpace=wrap;align=right;verticalAlign=bottom;" connectable="0" vertex="1" parent="eJg1xTR1Oy6LRIMfobP5-175">
          <mxGeometry x="1" relative="1" as="geometry">
            <mxPoint x="5" y="-10" as="offset" />
          </mxGeometry>
        </mxCell>
        <mxCell id="eJg1xTR1Oy6LRIMfobP5-193" value="" style="endArrow=none;html=1;rounded=0;dashed=1;dashPattern=1 2;exitX=1;exitY=0;exitDx=0;exitDy=0;entryX=0;entryY=0;entryDx=0;entryDy=0;" edge="1" parent="1" source="eJg1xTR1Oy6LRIMfobP5-122" target="eJg1xTR1Oy6LRIMfobP5-8">
          <mxGeometry relative="1" as="geometry">
            <mxPoint x="210" y="60" as="sourcePoint" />
            <mxPoint x="370" y="60" as="targetPoint" />
          </mxGeometry>
        </mxCell>
        <mxCell id="eJg1xTR1Oy6LRIMfobP5-194" value="N" style="resizable=0;html=1;whiteSpace=wrap;align=right;verticalAlign=bottom;" connectable="0" vertex="1" parent="eJg1xTR1Oy6LRIMfobP5-193">
          <mxGeometry x="1" relative="1" as="geometry" />
        </mxCell>
        <mxCell id="eJg1xTR1Oy6LRIMfobP5-195" value="" style="endArrow=none;html=1;rounded=0;dashed=1;dashPattern=1 2;exitX=1;exitY=0.5;exitDx=0;exitDy=0;entryX=0;entryY=0.5;entryDx=0;entryDy=0;" edge="1" parent="1" source="eJg1xTR1Oy6LRIMfobP5-14" target="eJg1xTR1Oy6LRIMfobP5-8">
          <mxGeometry relative="1" as="geometry">
            <mxPoint x="260" y="219" as="sourcePoint" />
            <mxPoint x="420" y="219" as="targetPoint" />
          </mxGeometry>
        </mxCell>
        <mxCell id="eJg1xTR1Oy6LRIMfobP5-196" value="N" style="resizable=0;html=1;whiteSpace=wrap;align=right;verticalAlign=bottom;" connectable="0" vertex="1" parent="eJg1xTR1Oy6LRIMfobP5-195">
          <mxGeometry x="1" relative="1" as="geometry" />
        </mxCell>
        <mxCell id="eJg1xTR1Oy6LRIMfobP5-197" value="" style="endArrow=none;html=1;rounded=0;dashed=1;dashPattern=1 2;entryX=0;entryY=0.25;entryDx=0;entryDy=0;exitX=1;exitY=0.5;exitDx=0;exitDy=0;" edge="1" parent="1" source="eJg1xTR1Oy6LRIMfobP5-18" target="eJg1xTR1Oy6LRIMfobP5-8">
          <mxGeometry relative="1" as="geometry">
            <mxPoint x="220" y="110" as="sourcePoint" />
            <mxPoint x="380" y="110" as="targetPoint" />
          </mxGeometry>
        </mxCell>
        <mxCell id="eJg1xTR1Oy6LRIMfobP5-198" value="N" style="resizable=0;html=1;whiteSpace=wrap;align=right;verticalAlign=bottom;" connectable="0" vertex="1" parent="eJg1xTR1Oy6LRIMfobP5-197">
          <mxGeometry x="1" relative="1" as="geometry" />
        </mxCell>
        <mxCell id="eJg1xTR1Oy6LRIMfobP5-199" value="" style="endArrow=none;html=1;rounded=0;dashed=1;dashPattern=1 2;exitX=1;exitY=0.5;exitDx=0;exitDy=0;entryX=0;entryY=0.75;entryDx=0;entryDy=0;" edge="1" parent="1" source="eJg1xTR1Oy6LRIMfobP5-22" target="eJg1xTR1Oy6LRIMfobP5-8">
          <mxGeometry relative="1" as="geometry">
            <mxPoint x="210" y="279" as="sourcePoint" />
            <mxPoint x="370" y="279" as="targetPoint" />
          </mxGeometry>
        </mxCell>
        <mxCell id="eJg1xTR1Oy6LRIMfobP5-200" value="N" style="resizable=0;html=1;whiteSpace=wrap;align=right;verticalAlign=bottom;" connectable="0" vertex="1" parent="eJg1xTR1Oy6LRIMfobP5-199">
          <mxGeometry x="1" relative="1" as="geometry" />
        </mxCell>
        <mxCell id="eJg1xTR1Oy6LRIMfobP5-203" value="FoodTaxonomy" style="shape=rhombus;perimeter=rhombusPerimeter;whiteSpace=wrap;html=1;align=center;" vertex="1" parent="1">
          <mxGeometry x="235" y="490" width="120" height="60" as="geometry" />
        </mxCell>
        <mxCell id="eJg1xTR1Oy6LRIMfobP5-204" value="" style="endArrow=none;html=1;rounded=0;exitX=1;exitY=0.5;exitDx=0;exitDy=0;entryX=0;entryY=0.5;entryDx=0;entryDy=0;" edge="1" parent="1" source="eJg1xTR1Oy6LRIMfobP5-203" target="eJg1xTR1Oy6LRIMfobP5-65">
          <mxGeometry relative="1" as="geometry">
            <mxPoint x="550" y="510" as="sourcePoint" />
            <mxPoint x="710" y="510" as="targetPoint" />
          </mxGeometry>
        </mxCell>
        <mxCell id="eJg1xTR1Oy6LRIMfobP5-205" value="N" style="resizable=0;html=1;whiteSpace=wrap;align=right;verticalAlign=bottom;" connectable="0" vertex="1" parent="eJg1xTR1Oy6LRIMfobP5-204">
          <mxGeometry x="1" relative="1" as="geometry" />
        </mxCell>
        <mxCell id="eJg1xTR1Oy6LRIMfobP5-206" value="" style="endArrow=none;html=1;rounded=0;dashed=1;dashPattern=1 2;exitX=0.5;exitY=1;exitDx=0;exitDy=0;entryX=0.5;entryY=0;entryDx=0;entryDy=0;" edge="1" parent="1" source="eJg1xTR1Oy6LRIMfobP5-49" target="eJg1xTR1Oy6LRIMfobP5-203">
          <mxGeometry relative="1" as="geometry">
            <mxPoint x="560" y="479" as="sourcePoint" />
            <mxPoint x="720" y="479" as="targetPoint" />
          </mxGeometry>
        </mxCell>
        <mxCell id="eJg1xTR1Oy6LRIMfobP5-208" value="" style="endArrow=none;html=1;rounded=0;dashed=1;dashPattern=1 2;exitX=0.5;exitY=1;exitDx=0;exitDy=0;entryX=0.5;entryY=0;entryDx=0;entryDy=0;" edge="1" parent="1" source="eJg1xTR1Oy6LRIMfobP5-31" target="eJg1xTR1Oy6LRIMfobP5-49">
          <mxGeometry relative="1" as="geometry">
            <mxPoint x="80" y="530" as="sourcePoint" />
            <mxPoint x="240" y="530" as="targetPoint" />
          </mxGeometry>
        </mxCell>
        <mxCell id="eJg1xTR1Oy6LRIMfobP5-209" value="N" style="resizable=0;html=1;whiteSpace=wrap;align=right;verticalAlign=bottom;" connectable="0" vertex="1" parent="eJg1xTR1Oy6LRIMfobP5-208">
          <mxGeometry x="1" relative="1" as="geometry" />
        </mxCell>
        <mxCell id="eJg1xTR1Oy6LRIMfobP5-210" value="" style="endArrow=none;html=1;rounded=0;dashed=1;dashPattern=1 2;entryX=0.25;entryY=1;entryDx=0;entryDy=0;exitX=0.5;exitY=0;exitDx=0;exitDy=0;" edge="1" parent="1" source="eJg1xTR1Oy6LRIMfobP5-31" target="eJg1xTR1Oy6LRIMfobP5-8">
          <mxGeometry relative="1" as="geometry">
            <mxPoint x="210" y="309" as="sourcePoint" />
            <mxPoint x="370" y="309" as="targetPoint" />
          </mxGeometry>
        </mxCell>
        <mxCell id="eJg1xTR1Oy6LRIMfobP5-211" value="N" style="resizable=0;html=1;whiteSpace=wrap;align=right;verticalAlign=bottom;" connectable="0" vertex="1" parent="eJg1xTR1Oy6LRIMfobP5-210">
          <mxGeometry x="1" relative="1" as="geometry">
            <mxPoint x="-7" y="16" as="offset" />
          </mxGeometry>
        </mxCell>
        <mxCell id="eJg1xTR1Oy6LRIMfobP5-212" value="" style="endArrow=none;html=1;rounded=0;dashed=1;dashPattern=1 2;entryX=0;entryY=0.5;entryDx=0;entryDy=0;exitX=1;exitY=0;exitDx=0;exitDy=0;" edge="1" parent="1" source="eJg1xTR1Oy6LRIMfobP5-37" target="eJg1xTR1Oy6LRIMfobP5-106">
          <mxGeometry relative="1" as="geometry">
            <mxPoint x="594" y="430" as="sourcePoint" />
            <mxPoint x="750" y="430" as="targetPoint" />
          </mxGeometry>
        </mxCell>
        <mxCell id="eJg1xTR1Oy6LRIMfobP5-213" value="N" style="resizable=0;html=1;whiteSpace=wrap;align=right;verticalAlign=bottom;" connectable="0" vertex="1" parent="eJg1xTR1Oy6LRIMfobP5-212">
          <mxGeometry x="1" relative="1" as="geometry" />
        </mxCell>
        <mxCell id="eJg1xTR1Oy6LRIMfobP5-214" value="" style="endArrow=none;html=1;rounded=0;dashed=1;dashPattern=1 2;entryX=0;entryY=0.5;entryDx=0;entryDy=0;exitX=1;exitY=1;exitDx=0;exitDy=0;" edge="1" parent="1" source="eJg1xTR1Oy6LRIMfobP5-37" target="eJg1xTR1Oy6LRIMfobP5-41">
          <mxGeometry relative="1" as="geometry">
            <mxPoint x="850" y="390" as="sourcePoint" />
            <mxPoint x="1006" y="390" as="targetPoint" />
          </mxGeometry>
        </mxCell>
        <mxCell id="eJg1xTR1Oy6LRIMfobP5-215" value="N" style="resizable=0;html=1;whiteSpace=wrap;align=right;verticalAlign=bottom;" connectable="0" vertex="1" parent="eJg1xTR1Oy6LRIMfobP5-214">
          <mxGeometry x="1" relative="1" as="geometry" />
        </mxCell>
        <mxCell id="eJg1xTR1Oy6LRIMfobP5-217" value="" style="endArrow=none;html=1;rounded=0;dashed=1;dashPattern=1 2;entryX=0;entryY=1;entryDx=0;entryDy=0;exitX=1;exitY=0.5;exitDx=0;exitDy=0;" edge="1" parent="1" source="eJg1xTR1Oy6LRIMfobP5-114" target="eJg1xTR1Oy6LRIMfobP5-8">
          <mxGeometry relative="1" as="geometry">
            <mxPoint x="190" y="229" as="sourcePoint" />
            <mxPoint x="346" y="229" as="targetPoint" />
          </mxGeometry>
        </mxCell>
        <mxCell id="eJg1xTR1Oy6LRIMfobP5-218" value="N" style="resizable=0;html=1;whiteSpace=wrap;align=right;verticalAlign=bottom;" connectable="0" vertex="1" parent="eJg1xTR1Oy6LRIMfobP5-217">
          <mxGeometry x="1" relative="1" as="geometry" />
        </mxCell>
      </root>
    </mxGraphModel>
  </diagram>
</mxfile>
